# xmcd
#
# Track frame offsets:
#  150
#  19390
#  40537
#  57637
#  71150
#  85235
#  112955
#  124952
#  143887
#  155857
#  165662
#  181330
#  196320
#  210965
#  233682
#  244667
#  256987
#
# Disc length: 3895 seconds
#
# Revision: 11
# Processed by: cddbd v1.5.1PL2 Copyright (c) Steve Scherf et al.
# Submitted via: Collectorz.com_Music_Collector 6.11
#
DISCID=ef0f3511
DTITLE=Various Artist - Blues Avenue [CD 1)
DYEAR=1996
DGENRE=Blues
TTITLE0=Friendship Bay - In This World Alone
TTITLE1=Stevie Ray Vaughan - Double Trouble - Couldn't Stand The Weather
TTITLE2=The Robert Cray Band - Don't Be Afraid Of The Dark
TTITLE3=John Lee Hooker - One Bourbon, One Scotch, One Beer
TTITLE4=The Bluebreakers - Elton John - Ramblin' On My Mind
TTITLE5=Willie Dixon - Black Door Man
TTITLE6=Taste - Morning Sun
TTITLE7=The Fabulous Thunderbirds - It Takes A Big Man To Cry
TTITLE8=Bobby Bland - Ain't Nobody You Can Do
TTITLE9=Chuck Berry - Worried Life Blues
TTITLE10=Fleetwood Mac - Need Your Love Tonight
TTITLE11=Steamhammer - Junior's Wailing
TTITLE12=Chicken Shack - I'd Rather Go Blind
TTITLE13=Eric Burdon and The Animals - St. James Infirmary
TTITLE14=Joe Cocker - Boom Boom
TTITLE15=Jimmy Reed - Honest I Do
TTITLE16=Joe Cocker - Let's Go Get Stoned
EXTD=
EXTT0=
EXTT1=
EXTT2=
EXTT3=
EXTT4=
EXTT5=
EXTT6=
EXTT7=
EXTT8=
EXTT9=
EXTT10=
EXTT11=
EXTT12=
EXTT13=
EXTT14=
EXTT15=
EXTT16=
PLAYORDER=
